<svg width="70" height="70" viewBox="0 0 70 70" fill="none" xmlns="http://www.w3.org/2000/svg">
<rect width="70" height="70" fill="#1E1E1E"/>
<rect width="70" height="70" fill="#369ED6"/>
<g clip-path="url(#clip0_0_1)">
<mask id="mask0_0_1" style="mask-type:luminance" maskUnits="userSpaceOnUse" x="0" y="1" width="70" height="69">
<path d="M70 1H0V70H70V1Z" fill="white"/>
</mask>
<g mask="url(#mask0_0_1)">
<path d="M29.5996 50.8703C20.5761 49.7697 14.2187 43.235 14.2187 34.7742C14.2187 31.3349 15.4492 27.6204 17.5 25.1441C16.6114 22.8741 16.7481 18.0591 17.7734 16.0643C20.5078 15.7204 24.1992 17.1648 26.3867 19.1596C28.9844 18.3342 31.7187 17.9215 35.0684 17.9215C38.418 17.9215 41.1524 18.3342 43.6133 19.0909C45.7324 17.1648 49.4922 15.7204 52.2266 16.0643C53.1836 17.9215 53.3203 22.7366 52.4316 25.0753C54.6191 27.6892 55.7812 31.1973 55.7812 34.7742C55.7812 43.235 49.4239 49.6321 40.2636 50.8015C42.5879 52.3148 44.1601 55.6166 44.1601 59.3999V66.5537C44.1601 68.6173 45.8691 69.7866 47.9199 68.9612C60.293 64.2149 70 51.7645 70 36.3563C70 16.8897 54.2774 1 34.9316 1C15.5859 1 1.70457e-07 16.8897 0 36.3563C-1.33715e-07 51.6269 9.63864 64.2837 22.6269 69.03C24.4726 69.7178 26.25 68.4797 26.25 66.6224V61.1195C25.293 61.5323 24.0625 61.8074 22.9687 61.8074C18.457 61.8074 15.791 59.3311 13.8769 54.7223C13.125 52.8651 12.3047 51.7645 10.7324 51.5582C9.91214 51.4894 9.63864 51.1455 9.63864 50.7328C9.63864 49.9073 11.0059 49.2882 12.3731 49.2882C14.3555 49.2882 16.0644 50.5264 17.8418 53.0715C19.209 55.0663 20.6445 55.9605 22.3535 55.9605C24.0625 55.9605 25.1562 55.3414 26.7285 53.7593C27.8906 52.5899 28.7793 51.5582 29.5996 50.8703Z" fill="#1E1E1E"/>
</g>
</g>
<defs>
<clipPath id="clip0_0_1">
<rect width="70" height="69" fill="white" transform="translate(0 1)"/>
</clipPath>
</defs>
</svg>
